<svg width="23" height="21" viewBox="0 0 23 21" fill="none" xmlns="http://www.w3.org/2000/svg">
<path d="M12.9899 4.01096L12.868 3.8451L10.8012 1.03419C10.8012 1.03415 10.8011 1.03411 10.8011 1.03406C10.696 0.891406 10.5541 0.771606 10.3854 0.686914C10.2166 0.60218 10.0271 0.555774 9.83288 0.552937C9.83281 0.552936 9.83275 0.552935 9.83268 0.552934L5.91378 0.5H5.90907C3.91894 0.5 2.60382 0.81755 1.74976 2.14592L1.74974 2.14595C0.906975 3.45651 0.5 5.78233 0.5 10.1282V10.158H1.28582H1.90069L1.77532 10.76L1.07297 14.132H1.1985L1.94332 10.5561L2.02623 10.158H2.43281H2.81384H2.81804V10.158C3.61516 10.1647 4.3778 9.87564 4.94234 9.36139L4.94438 9.35953L4.94439 9.35954C5.46117 8.89398 5.84442 8.24751 6.04034 7.47898L6.04044 7.47859L6.86911 3.73994H6.74357L5.91665 7.47073L5.91484 7.47893L5.91275 7.48706C5.60411 8.68732 4.63758 10.0983 2.81384 10.0983H1.12765H0.623557L0.627664 9.59422C0.643045 7.70668 0.741936 6.18456 0.938623 4.97416C1.1345 3.76873 1.43281 2.83601 1.87148 2.15375C2.24856 1.56719 2.72933 1.15278 3.40715 0.896767C4.06199 0.649436 4.87554 0.559812 5.90504 0.559559L5.91193 0.559558L5.91193 0.559605L9.83048 0.612591L9.83089 0.612597C9.99493 0.614947 10.1573 0.654036 10.3047 0.728026L10.0803 1.17489L10.3047 0.728028C10.4521 0.802066 10.5818 0.909656 10.6809 1.04421L10.6812 1.04454L12.8974 4.05851L15.835 4.5195L16.2575 4.5858V5.01346V5.57508V5.62438L16.2479 5.67274L15.7241 8.30287L15.7241 8.30287L15.2337 8.20522C15.0791 8.9815 14.8149 9.37254 13.7312 9.4951L12.9899 4.01096ZM12.9899 4.01096L13.1933 4.04287L16.3831 4.5434V5.62427L15.8497 8.30288C15.7359 8.87419 15.5591 9.20821 15.3031 9.45963C15.0012 9.75609 14.5405 9.96584 13.8223 10.049L13.8113 10.0503L13.8003 10.052L10.3287 10.6117L9.91109 10.679L9.90827 11.102L9.88812 14.132H9.7626L9.78581 10.6371L13.7994 9.99057L12.9899 4.01096Z" fill="white" stroke="white"/>
<mask id="path-2-inside-1_106_108" fill="white">
<path d="M15.1146 12.9262C15.1913 12.6719 15.3369 12.4512 15.531 12.295C15.7251 12.1388 15.9578 12.055 16.1964 12.0554H17.1128V9.00439L17.4979 9.06629C18.3714 9.20668 19.0519 9.70472 19.5202 10.5466C19.8578 11.1535 20.0147 11.8229 20.0876 12.3236C20.5904 12.7589 21.0279 13.3582 21.3894 14.1076C21.6941 14.739 21.9463 15.4792 22.1391 16.3074C22.4648 17.7068 22.5089 18.8676 22.5106 18.9164L22.5107 20.2598H21.8361V18.9399C21.8277 18.7446 21.6152 14.4717 19.5792 12.8446L19.4598 12.7492L19.4402 12.586C19.3387 11.7408 18.9878 10.3449 17.7875 9.91581V12.8145H16.1964C16.0988 12.8142 16.0037 12.8483 15.9242 12.912C15.8448 12.9757 15.7851 13.0659 15.7536 13.1697C15.4846 14.0631 15.0224 15.1809 14.302 15.7062L14.5187 16.6202C14.5941 16.9462 14.7656 17.2337 15.0052 17.4357C15.2447 17.6377 15.5382 17.7422 15.8374 17.7321C16.4419 17.7117 17.0711 17.8005 17.7075 17.9957L17.9562 18.072V20.2598H17.2814V18.6577C16.8152 18.5338 16.3367 18.4777 15.8577 18.4909C15.4066 18.5049 14.9646 18.3471 14.6032 18.043C14.2418 17.739 13.9823 17.3066 13.8668 16.8158L13.5064 15.2956L13.7748 15.1663C14.2766 14.9243 14.7524 14.1287 15.1146 12.9262Z"/>
</mask>
<path d="M15.1146 12.9262C15.1913 12.6719 15.3369 12.4512 15.531 12.295C15.7251 12.1388 15.9578 12.055 16.1964 12.0554H17.1128V9.00439L17.4979 9.06629C18.3714 9.20668 19.0519 9.70472 19.5202 10.5466C19.8578 11.1535 20.0147 11.8229 20.0876 12.3236C20.5904 12.7589 21.0279 13.3582 21.3894 14.1076C21.6941 14.739 21.9463 15.4792 22.1391 16.3074C22.4648 17.7068 22.5089 18.8676 22.5106 18.9164L22.5107 20.2598H21.8361V18.9399C21.8277 18.7446 21.6152 14.4717 19.5792 12.8446L19.4598 12.7492L19.4402 12.586C19.3387 11.7408 18.9878 10.3449 17.7875 9.91581V12.8145H16.1964C16.0988 12.8142 16.0037 12.8483 15.9242 12.912C15.8448 12.9757 15.7851 13.0659 15.7536 13.1697C15.4846 14.0631 15.0224 15.1809 14.302 15.7062L14.5187 16.6202C14.5941 16.9462 14.7656 17.2337 15.0052 17.4357C15.2447 17.6377 15.5382 17.7422 15.8374 17.7321C16.4419 17.7117 17.0711 17.8005 17.7075 17.9957L17.9562 18.072V20.2598H17.2814V18.6577C16.8152 18.5338 16.3367 18.4777 15.8577 18.4909C15.4066 18.5049 14.9646 18.3471 14.6032 18.043C14.2418 17.739 13.9823 17.3066 13.8668 16.8158L13.5064 15.2956L13.7748 15.1663C14.2766 14.9243 14.7524 14.1287 15.1146 12.9262Z" fill="white"/>
<path d="M15.1146 12.9262L14.157 12.6378L14.1572 12.6372L15.1146 12.9262ZM16.1964 12.0554V13.0554L16.1948 13.0554L16.1964 12.0554ZM17.1128 12.0554H18.1128V13.0554H17.1128V12.0554ZM17.1128 9.00439H16.1128V7.83084L17.2714 8.01707L17.1128 9.00439ZM17.4979 9.06629L17.3392 10.0536L17.3392 10.0536L17.4979 9.06629ZM19.5202 10.5466L18.6463 11.0328L18.6463 11.0327L19.5202 10.5466ZM20.0876 12.3236L19.4331 13.0797L19.1516 12.836L19.098 12.4676L20.0876 12.3236ZM21.3894 14.1076L20.4887 14.5421L20.4887 14.5421L21.3894 14.1076ZM22.1391 16.3074L21.1651 16.5341L21.1651 16.5341L22.1391 16.3074ZM22.5106 18.9164L23.51 18.8813L23.5106 18.8988L23.5106 18.9162L22.5106 18.9164ZM22.5107 20.2598L23.5107 20.2596L23.5109 21.2598H22.5107V20.2598ZM21.8361 20.2598V21.2598H20.8361V20.2598H21.8361ZM21.8361 18.9399L22.8352 18.8968L22.8361 18.9183V18.9399H21.8361ZM19.5792 12.8446L18.9549 13.6258L18.9548 13.6257L19.5792 12.8446ZM19.4598 12.7492L18.8355 13.5304L18.5158 13.2748L18.467 12.8685L19.4598 12.7492ZM19.4402 12.586L20.4331 12.4667L20.4331 12.4667L19.4402 12.586ZM17.7875 9.91581H16.7875V8.49636L18.1241 8.97417L17.7875 9.91581ZM17.7875 12.8145H18.7875V13.8145H17.7875V12.8145ZM16.1964 12.8145V13.8145L16.193 13.8145L16.1964 12.8145ZM15.7536 13.1697L14.7961 12.8814L14.7967 12.8794L15.7536 13.1697ZM14.302 15.7062L13.329 15.9369L13.1757 15.29L13.7128 14.8983L14.302 15.7062ZM14.5187 16.6202L15.4917 16.3896L15.4929 16.3948L14.5187 16.6202ZM15.8374 17.7321L15.8711 18.7316L15.871 18.7316L15.8374 17.7321ZM17.7075 17.9957L17.4143 18.9518L17.4142 18.9517L17.7075 17.9957ZM17.9562 18.072L18.2494 17.116L18.9562 17.3327V18.072H17.9562ZM17.9562 20.2598H18.9562V21.2598H17.9562V20.2598ZM17.2814 20.2598V21.2598H16.2814V20.2598H17.2814ZM17.2814 18.6577L17.5383 17.6913L18.2814 17.8888V18.6577H17.2814ZM15.8577 18.4909L15.8267 17.4914L15.8301 17.4913L15.8577 18.4909ZM13.8668 16.8158L14.8398 16.5852L14.8401 16.5866L13.8668 16.8158ZM13.5064 15.2956L12.5334 15.5263L12.348 14.744L13.0721 14.3949L13.5064 15.2956ZM13.7748 15.1663L14.2091 16.067L14.2091 16.067L13.7748 15.1663ZM14.1572 12.6372C14.2881 12.2035 14.5424 11.807 14.904 11.516L16.158 13.074C16.1315 13.0954 16.0945 13.1404 16.0719 13.2151L14.1572 12.6372ZM14.904 11.516C15.2677 11.2232 15.7201 11.0546 16.198 11.0554L16.1948 13.0554C16.1937 13.0554 16.1909 13.0555 16.1858 13.0573C16.1806 13.0592 16.1708 13.0637 16.158 13.074L14.904 11.516ZM16.1964 11.0554H17.1128V13.0554H16.1964V11.0554ZM16.1128 12.0554V9.00439H18.1128V12.0554H16.1128ZM17.2714 8.01707L17.6565 8.07896L17.3392 10.0536L16.9541 9.99172L17.2714 8.01707ZM17.6565 8.07896C18.8622 8.27273 19.792 8.978 20.3941 10.0605L18.6463 11.0327C18.3118 10.4314 17.8806 10.1406 17.3392 10.0536L17.6565 8.07896ZM20.394 10.0605C20.8132 10.814 20.9951 11.6154 21.0772 12.1797L19.098 12.4676C19.0344 12.0304 18.9023 11.493 18.6463 11.0328L20.394 10.0605ZM20.742 11.5675C21.3704 12.1114 21.8836 12.8305 22.2901 13.6731L20.4887 14.5421C20.1721 13.8858 19.8105 13.4064 19.4331 13.0797L20.742 11.5675ZM22.29 13.673C22.6327 14.3831 22.9069 15.1953 23.113 16.0807L21.1651 16.5341C20.9856 15.763 20.7555 15.095 20.4887 14.5421L22.29 13.673ZM23.113 16.0807C23.4593 17.5686 23.5071 18.8009 23.51 18.8813L21.5112 18.9514C21.5106 18.9343 21.4702 17.8451 21.1651 16.5341L23.113 16.0807ZM23.5106 18.9162L23.5107 20.2596L21.5107 20.2599L21.5106 18.9165L23.5106 18.9162ZM22.5107 21.2598H21.8361V19.2598H22.5107V21.2598ZM20.8361 20.2598V18.9399H22.8361V20.2598H20.8361ZM20.837 18.9831C20.8341 18.9156 20.783 17.8693 20.4952 16.6609C20.1948 15.3996 19.6941 14.2165 18.9549 13.6258L20.2035 12.0634C21.5002 13.0997 22.1238 14.8666 22.4408 16.1975C22.7703 17.5811 22.8296 18.7689 22.8352 18.8968L20.837 18.9831ZM18.9548 13.6257L18.8355 13.5304L20.0842 11.9681L20.2035 12.0634L18.9548 13.6257ZM18.467 12.8685L18.4474 12.7052L20.4331 12.4667L20.4527 12.6299L18.467 12.8685ZM18.4474 12.7052C18.4034 12.3397 18.3096 11.9037 18.1289 11.5369C17.9523 11.1784 17.7312 10.9576 17.4509 10.8575L18.1241 8.97417C19.0441 9.30306 19.5986 9.99477 19.9229 10.6529C20.2431 11.3026 20.3755 11.987 20.4331 12.4667L18.4474 12.7052ZM18.7875 9.91581V12.8145H16.7875V9.91581H18.7875ZM17.7875 13.8145H16.1964V11.8145H17.7875V13.8145ZM16.193 13.8145C16.3348 13.815 16.4595 13.7646 16.55 13.692L15.2985 12.132C15.5478 11.9319 15.8629 11.8134 16.1998 11.8145L16.193 13.8145ZM16.55 13.692C16.6383 13.6211 16.6876 13.5357 16.7105 13.4601L14.7967 12.8794C14.8826 12.5961 15.0512 12.3303 15.2985 12.132L16.55 13.692ZM16.7111 13.4581C16.5659 13.9402 16.3617 14.5077 16.0829 15.0399C15.8106 15.56 15.428 16.1228 14.8913 16.5142L13.7128 14.8983C13.8965 14.7643 14.1051 14.5056 14.3112 14.1121C14.5109 13.7307 14.6722 13.2926 14.7961 12.8814L16.7111 13.4581ZM15.2751 15.4756L15.4917 16.3896L13.5456 16.8509L13.329 15.9369L15.2751 15.4756ZM15.4929 16.3948C15.5231 16.5254 15.587 16.6182 15.6498 16.6712L14.3606 18.2002C13.9442 17.8492 13.665 17.367 13.5444 16.8456L15.4929 16.3948ZM15.6498 16.6712C15.7098 16.7218 15.7643 16.734 15.8038 16.7327L15.871 18.7316C15.3121 18.7504 14.7797 18.5536 14.3606 18.2002L15.6498 16.6712ZM15.8037 16.7327C16.5295 16.7082 17.2692 16.8152 18.0008 17.0397L17.4142 18.9517C16.873 18.7857 16.3543 18.7153 15.8711 18.7316L15.8037 16.7327ZM18.0008 17.0397L18.2494 17.116L17.663 19.028L17.4143 18.9518L18.0008 17.0397ZM18.9562 18.072V20.2598H16.9562V18.072H18.9562ZM17.9562 21.2598H17.2814V19.2598H17.9562V21.2598ZM16.2814 20.2598V18.6577H18.2814V20.2598H16.2814ZM17.0246 19.6241C16.6504 19.5247 16.2677 19.48 15.8853 19.4905L15.8301 17.4913C16.4057 17.4754 16.98 17.5428 17.5383 17.6913L17.0246 19.6241ZM15.8887 19.4904C15.1793 19.5124 14.4996 19.2627 13.9594 18.8082L15.247 17.2779C15.4296 17.4314 15.634 17.4974 15.8267 17.4914L15.8887 19.4904ZM13.9594 18.8082C13.4219 18.356 13.0548 17.7302 12.8934 17.0451L14.8401 16.5866C14.9099 16.8829 15.0618 17.122 15.247 17.2779L13.9594 18.8082ZM12.8937 17.0465L12.5334 15.5263L14.4795 15.065L14.8398 16.5852L12.8937 17.0465ZM13.0721 14.3949L13.3405 14.2655L14.2091 16.067L13.9408 16.1964L13.0721 14.3949ZM13.3405 14.2655C13.3366 14.2674 13.4553 14.2 13.6389 13.8931C13.8109 13.6056 13.9913 13.1882 14.157 12.6378L16.0721 13.2145C15.8757 13.8666 15.6372 14.4484 15.3553 14.9197C15.0849 15.3718 14.7149 15.8231 14.2091 16.067L13.3405 14.2655Z" fill="white" mask="url(#path-2-inside-1_106_108)"/>
</svg>
