<svg width="539" height="514" viewBox="0 0 539 514" fill="none" xmlns="http://www.w3.org/2000/svg">
    <path fill-rule="evenodd" clip-rule="evenodd" d="M249.372 5.06187C301.205 4.68394 359.159 -11.7614 401.22 16.7321C443.156 45.1406 437.756 104.641 460.681 148.208C484.624 193.71 543.241 227.517 538.756 278.112C534.287 328.543 473.273 354.518 438.943 393.483C403.642 433.549 386.851 494.712 334.1 510.394C281.334 526.081 229.805 486.408 176.812 471.412C124.245 456.536 58.007 463.192 24.0209 422.644C-9.98009 382.079 12.2634 323.031 9.21367 271.455C6.46978 225.05 -8.67192 178.941 7.00453 134.866C23.6077 88.1858 53.552 43.2915 99.0289 18.9355C143.692 -4.98474 197.977 5.43661 249.372 5.06187Z" fill="#C4C4C4" fill-opacity="0.2"/>
</svg>
